# xmcd
#
# Track frame offsets: 
#        150
#        21127
#        37610
#        57192
#        77007
#        100712
#        124202
#        148082
#        170087
#        187710
#        206059
#        220462
#        234280
#
# Disc length: 3389 seconds
#
# Revision: 1
# Processed by: cddbd v1.5.2PL0 Copyright (c) Steve Scherf et al.
# Submitted via: ExactAudioCopy v0.95a5
#
DISCID=aa0d3b0d
DTITLE=Brenda Russell - k-Paris Rain
DYEAR=2000
DGENRE=R&B
TTITLE0=Ideal World
TTITLE1=She's In Love
TTITLE2=Catch On
TTITLE3=Walkin' In New York
TTITLE4=Love And Paris Rain
TTITLE5=Expect A Miracle
TTITLE6=Please Felipe
TTITLE7=You Can't Hide Your Heart From Me
TTITLE8=Move The Moon
TTITLE9=Something About Your Love
TTITLE10=Baby Eyes
TTITLE11=Wayward Soul
TTITLE12=Different Eyes
EXTD=
EXTT0=
EXTT1=
EXTT2=
EXTT3=
EXTT4=
EXTT5=
EXTT6=
EXTT7=
EXTT8=
EXTT9=
EXTT10=
EXTT11=
EXTT12=
PLAYORDER=
